<?xml version="1.0" encoding="UTF-8"?>
<svg id="Livello_3" data-name="Livello 3" xmlns="http://www.w3.org/2000/svg" viewBox="0 0 595.28 841.89">
  <defs>
    <style>
      .cls-1 {
        fill: #a4a5a8;
      }

      .cls-2 {
        fill: #754394;
      }

      .cls-3 {
        fill: #aacaec;
      }

      .cls-4 {
        fill: none;
        stroke: #fff;
        stroke-miterlimit: 10;
        stroke-width: 1.5px;
      }
    </style>
  </defs>
  <g>
    <path class="cls-2" d="M295.89,234.02c-23.02.53-22.34,8.07-22.34,8.07,0,0-1.91-.16-1.95,1.45s0,7.52,0,7.52c0,0,.11,1.38,1.74,1.33,0,0-.44,2.71,1.21,3.52,1.65.8,7.5,3.37,10.02,3.88s2.65.51,3.66.08c1.02-.42,1.55-.93,1.55-.93,0,0,1,.85,2.25-.47s2.83-3.96,3.5-3.96h.37"/>
    <path class="cls-2" d="M295.89,234.02c23.02.53,22.34,8.07,22.34,8.07,0,0,1.91-.16,1.95,1.45s0,7.52,0,7.52c0,0-.11,1.38-1.74,1.33,0,0,.44,2.71-1.21,3.52s-7.5,3.37-10.02,3.88-2.65.51-3.66.08-1.55-.93-1.55-.93c0,0-1,.85-2.25-.47s-2.83-3.96-3.5-3.96h-.37"/>
  </g>
  <g>
    <path class="cls-3" d="M295.89,237.46s-18.52.42-18.65,5.49c-.13,5.06,0,7.74,0,7.74,0,0-.03,2.35,1.6,3.07s6.95,2.12,6.95,2.12c0,0,1.76.88,3.59-1.44s4.23-5.81,6.51-5.75"/>
    <path class="cls-3" d="M295.89,237.46s18.52.42,18.65,5.49c.13,5.06,0,7.74,0,7.74,0,0,.03,2.35-1.6,3.07-1.63.72-6.95,2.12-6.95,2.12,0,0-1.76.88-3.59-1.44s-4.23-5.81-6.51-5.75"/>
  </g>
  <path class="cls-2" d="M297.64,411.62c-1.98,0-1.7,17.94-1.7,20.56s-1.07,24.3-1.9,26.68-4.37,11.19-4.37,11.19c-5.01,14-5.31,21.38-6.19,23.59s-2.65,12.68-2.95,18.43-5.45,28.3-8.11,43.49-1.18,21.52-1.18,21.52h-17.54c.59-1.92.59-7.37.59-7.37.59-12.53-4.04-48.42-3.5-59.06.55-10.64,9-29.19,9.55-32.46s.68-8.32.14-15-1.64-17.73-2.32-37.91,3.55-33.41,3.96-38.87,13.23-28.37,14.05-30.96-.41-23.05-.41-27c0-3.96-1.23-4.77-3.14-9.14-1.91-4.36-.27-11.59-.27-11.59l-2.11-.14c-26.66,2.18-35.46-.41-38.19-.68-2.73-.27-6.96,0-18.14-.55s-44.19-6.82-44.19-6.82v-9s23.19-1.91,34.23-2.32c11.05-.41,25.5,1.91,26.46,2.45s4.36.82,6.27,0,15.41-1.64,17.05-1.5,4.5-.41,5.46-.95,6.16-2,13.92-2.33c7.75-.32,12.76-5.82,12.76-5.82,0,0,6.9,8.63,12.68,8.44,5.78-.19,10.92-6.93,10.91-8.44,0,0,5.01,5.49,12.76,5.82,7.75.32,12.96,1.78,13.92,2.33s3.82,1.09,5.46.95,15.14.68,17.05,1.5c1.91.82,5.32.55,6.27,0,.95-.55,15.41-2.86,26.46-2.45,11.05.41,34.23,2.32,34.23,2.32v9s-33,6.27-44.19,6.82c-11.18.55-15.41.27-18.14.55s-11.52,2.86-38.19.68l-2.11.14s1.64,7.23-.27,11.59-3.14,5.18-3.14,9.14-1.23,24.41-.41,27,13.64,25.5,14.05,30.96,4.64,18.68,3.96,38.87-1.77,31.23-2.32,37.91c-.55,6.68-.41,11.73.14,15,.55,3.27,9,21.82,9.55,32.46s-4.09,46.53-3.5,59.06c0,0,0,5.45.59,7.37h-17.54s1.47-6.34-1.18-21.52c-2.65-15.18-7.81-37.74-8.11-43.49s-2.06-16.22-2.95-18.43-1.18-9.58-6.19-23.59c0,0-3.54-8.81-4.37-11.19s-1.9-24.06-1.9-26.68.28-20.56-1.7-20.56"/>
  <g>
    <path class="cls-3" d="M294.73,354.63h24.53s-.31-10.04,0-18.33c.31-8.29,1.38-12.84,1.38-12.84,6.1-7.65,2.3-15.76,2.3-15.76-2.73-5.51-.76-21.83-.76-21.83,0,0-4.17-.27-6.67-1.62,0,0-8.45,17.37-20.79,17.07"/>
    <path class="cls-3" d="M297.64,354.63h-24.53s.31-10.04,0-18.33-1.38-12.84-1.38-12.84c-6.1-7.65-2.3-15.76-2.3-15.76,2.73-5.51.76-21.83.76-21.83,0,0,4.17-.27,6.67-1.62,0,0,8.45,17.37,20.79,17.07"/>
  </g>
  <g>
    <circle class="cls-4" cx="283.75" cy="316.98" r="5.73"/>
    <circle class="cls-4" cx="296.76" cy="316.98" r="5.73"/>
    <circle class="cls-4" cx="309.78" cy="316.98" r="5.73"/>
    <circle class="cls-4" cx="290.17" cy="322.71" r="5.73"/>
    <circle class="cls-4" cx="303.25" cy="322.71" r="5.73"/>
  </g>
  <path d="M425.58,290.45s15.62-5.3,21.33-3.68c0,0,1.52.77,1.26,1.69,0,0,8.61,1.17,9.38,3.1.77,1.93.19,3.47,0,3.98s-.83,7.9-6.68,9.51c-5.84,1.61-7.77-2.63-10.02-2.89s-15.27-2.7-15.27-2.7v-9Z"/>
  <path d="M169.7,290.45s-15.62-5.3-21.33-3.68c0,0-1.52.77-1.26,1.69,0,0-8.61,1.17-9.38,3.1s-.19,3.47,0,3.98.83,7.9,6.68,9.51c5.84,1.61,7.77-2.63,10.02-2.89s15.27-2.7,15.27-2.7v-9Z"/>
  <g>
    <path class="cls-1" d="M243.58,600.42s.82-2.79,1.11-4.07.14-2.36.79-3.15,3.43-4.22,3.65-5.65,2.57-9.01,2.5-12.08c-.07-3.07.43-11.94,0-14.72s1.86-3.79,2.43-3.29c0,0-.29-1.29,1.29-1.79s5.43-1.64,7.65-.93c2.22.71,4.15.93,4.5,2.22l.36,1.22s-.07-.93,1.07-.5,1.57,1.22,2.29,1.29.79.29,1.14.5,1.64,1.72,1.64,2.5-.71,2.14-.64,3.29-.29,2.79-.64,3.43-.14,4.86.14,5.5-1,5.86-.86,7.93.14,7.29.64,8.79,1.57,9.51,1.57,9.51l-5.79,2.36-14.01.43-10.51-1.64-.32-1.14Z"/>
    <path d="M243.58,600.42l-1.07,1.14v4.57s4.68,1.93,15.47,1.72,15.65-.71,17.08-1.07l.36-4.93-1.22-1.43s-5.43,1.79-14.94,1.64c-9.51-.14-15.08-1.36-15.69-1.64Z"/>
    <path d="M248.79,591.29l.89-2.3s9.58-2.68,19.41,0v2.3s-10.35-3.03-20.31,0Z"/>
    <path d="M249.82,586.24l.53-2.11s7.2-3.55,21.26.38l.08,2.15s-13.11-3.82-21.87-.43Z"/>
    <path d="M251.61,574.68c10.71,2.01,21.23.46,21.23.46l-.33,2.25c-10.26,1.79-20.97-.6-20.97-.6l.07-2.11Z"/>
    <path d="M251.8,565.16l-.04,2.87s10.95,2.71,20.95.65c0,0,.62-1.84.63-2.64,0,0-12.62,2.28-21.54-.88Z"/>
  </g>
  <g>
    <path class="cls-1" d="M350.3,600.42s-.82-2.79-1.11-4.07-.14-2.36-.79-3.15-3.43-4.22-3.65-5.65c-.21-1.43-2.57-9.01-2.5-12.08s-.43-11.94,0-14.72-1.86-3.79-2.43-3.29c0,0,.29-1.29-1.29-1.79-1.57-.5-5.43-1.64-7.65-.93-2.22.71-4.15.93-4.5,2.22l-.36,1.22s.07-.93-1.07-.5-1.57,1.22-2.29,1.29-.79.29-1.14.5-1.64,1.72-1.64,2.5c0,.79.71,2.14.64,3.29s.29,2.79.64,3.43.14,4.86-.14,5.5,1,5.86.86,7.93-.14,7.29-.64,8.79-1.57,9.51-1.57,9.51l5.79,2.36,14.01.43,10.51-1.64.32-1.14Z"/>
    <path d="M350.3,600.42l1.07,1.14v4.57s-4.68,1.93-15.47,1.72c-10.79-.21-15.65-.71-17.08-1.07l-.36-4.93,1.22-1.43s5.43,1.79,14.94,1.64c9.51-.14,15.08-1.36,15.69-1.64Z"/>
    <path d="M345.08,591.29l-.89-2.3s-9.58-2.68-19.41,0v2.3s10.35-3.03,20.31,0Z"/>
    <path d="M344.06,586.24l-.53-2.11s-7.2-3.55-21.26.38l-.08,2.15s13.11-3.82,21.87-.43Z"/>
    <path d="M342.27,574.68c-10.71,2.01-21.23.46-21.23.46l.33,2.25c10.26,1.79,20.97-.6,20.97-.6l-.07-2.11Z"/>
    <path d="M342.08,565.16l.04,2.87s-10.95,2.71-20.95.65c0,0-.62-1.84-.63-2.64,0,0,12.62,2.28,21.54-.88Z"/>
  </g>
</svg>