<?xml version="1.0" encoding="UTF-8"?>
<svg id="Livello_3" data-name="Livello 3" xmlns="http://www.w3.org/2000/svg" viewBox="0 0 595.28 841.89">
  <defs>
    <style>
      .cls-1 {
        fill: #a4a5a8;
      }

      .cls-2 {
        fill: #aac811;
      }

      .cls-3 {
        fill: #aacaec;
      }

      .cls-4 {
        fill: none;
        stroke: #fff;
        stroke-miterlimit: 10;
        stroke-width: 1.5px;
      }
    </style>
  </defs>
  <path class="cls-2" d="M297.64,446.86c-4.97,0-18.07,78.71-18.07,78.71-1.16,4.72,0,7.09,0,12.99,0,5.9-2.08,21.49-3.47,41.1s3.93,21.49-3.93,24.33c-7.86,2.83-19.89-.24-22.66-3.54-2.77-3.31.23-25.04-.69-40.62-.92-15.59,3.47-41.57,3.7-44.64s1.85-5.9-1.85-39.68c-3.7-33.77,7.63-96.36,10.41-108.88s-5.55-64.24-6.94-69.91-11.56-7.32-14.57-8.54c-3.01-1.22-46.48-.67-53.88-.2s-21.04.24-25.67-2.13c-4.62-2.36-30.06-5.43-30.06-5.43v-13.23c5.78-1.18,58.04-3.31,60.58-3.31s3.01.24,8.79-.94c5.78-1.18,24.05,0,29.83,0s19.89-3.07,25.67-5.2c5.78-2.13,18.83-2.81,18.83-2.81,0,0-.04,15.41,23.84,15.75s24.13-15.75,24.13-15.75c0,0,13.05.68,18.83,2.81,5.78,2.13,19.89,5.2,25.67,5.2s24.05-1.18,29.83,0,6.24.94,8.79.94,54.8,2.13,60.58,3.31v13.23s-25.43,3.07-30.06,5.43c-4.62,2.36-18.27,2.6-25.67,2.13s-50.87-1.02-53.88.2-13.18,2.87-14.57,8.54-9.71,57.39-6.94,69.91c2.77,12.52,14.1,75.11,10.41,108.88-3.7,33.77-2.08,36.61-1.85,39.68s4.62,29.05,3.7,44.64c-.92,15.59,2.08,37.32-.69,40.62-2.77,3.31-14.8,6.38-22.66,3.54s-2.54-4.72-3.93-24.33-3.47-35.19-3.47-41.1c0-5.9,1.16-8.27,0-12.99,0,0-13.1-78.71-18.07-78.71"/>
  <path class="cls-3" d="M341.43,257.74c-4.55,18.31.71,38.97.71,38.97-10.55,54.82-7.09,69.91-7.09,69.91-36.18,7.19-74.71,0-74.71,0,2.59-20.79-7.09-69.91-7.09-69.91,5.37-19.12.71-38.97.71-38.97,0,0,5.94-1.77,13.25-2.34,0,0,27.39,110.08,59.84-.11,0,0,9.76.96,13.71,2.22l.67.22Z"/>
  <g>
    <circle class="cls-4" cx="277.83" cy="317.17" r="8.74"/>
    <circle class="cls-4" cx="297.7" cy="317.17" r="8.74"/>
    <circle class="cls-4" cx="317.56" cy="317.17" r="8.74"/>
    <circle class="cls-4" cx="287.63" cy="325.91" r="8.74"/>
    <circle class="cls-4" cx="307.61" cy="325.91" r="8.74"/>
  </g>
  <g>
    <path class="cls-2" d="M297.7,198.4c-24.67.57-23.94,8.65-23.94,8.65,0,0-2.04-.17-2.09,1.55s0,8.06,0,8.06c0,0,.11,1.48,1.86,1.43,0,0-.48,2.91,1.29,3.77,1.77.86,8.04,3.61,10.74,4.16s2.84.54,3.93.09,1.66-1,1.66-1c0,0,1.07.91,2.41-.5s3.03-4.25,3.75-4.25h.39"/>
    <path class="cls-2" d="M297.7,198.4c24.67.57,23.94,8.65,23.94,8.65,0,0,2.04-.17,2.09,1.55.05,1.73,0,8.06,0,8.06,0,0-.11,1.48-1.86,1.43,0,0,.48,2.91-1.29,3.77s-8.04,3.61-10.74,4.16-2.84.54-3.93.09-1.66-1-1.66-1c0,0-1.07.91-2.41-.5-1.34-1.41-3.03-4.25-3.75-4.25h-.39"/>
  </g>
  <g>
    <path class="cls-3" d="M297.7,202.09s-19.85.45-19.99,5.88c-.14,5.42,0,8.29,0,8.29,0,0-.03,2.52,1.71,3.29s7.45,2.27,7.45,2.27c0,0,1.89.94,3.85-1.54s4.54-6.23,6.98-6.16"/>
    <path class="cls-3" d="M297.7,202.09s19.85.45,19.99,5.88c.14,5.42,0,8.29,0,8.29,0,0,.03,2.52-1.71,3.29s-7.45,2.27-7.45,2.27c0,0-1.89.94-3.85-1.54s-4.54-6.23-6.98-6.16"/>
  </g>
  <path d="M465.2,267.59s22.98-7.79,31.37-5.42c0,0,2.23,1.14,1.85,2.48,0,0,12.66,1.72,13.79,4.56,1.13,2.83.28,5.1,0,5.86s-1.23,11.62-9.82,13.98-11.43-3.87-14.73-4.25-22.46-3.97-22.46-3.97v-13.24Z"/>
  <path d="M129.85,267.33s-22.87-7.75-31.23-5.39c0,0-2.22,1.13-1.85,2.47,0,0-12.6,1.72-13.73,4.54-1.13,2.82-.28,5.08,0,5.83s1.22,11.56,9.78,13.91c8.56,2.35,11.38-3.85,14.67-4.23,3.29-.38,22.35-3.95,22.35-3.95v-13.18Z"/>
  <g>
    <path class="cls-1" d="M236.94,633.11s1.14-3.88,1.54-5.67.2-3.29,1.1-4.38,4.78-5.87,5.08-7.87,3.58-12.54,3.48-16.83.6-16.63,0-20.51c-.6-3.88,2.59-5.28,3.38-4.58,0,0-.4-1.79,1.79-2.49s7.57-2.29,10.65-1.29c3.09,1,5.77,1.29,6.27,3.09l.5,1.69s-.1-1.29,1.49-.7c1.59.6,2.19,1.69,3.19,1.79s1.1.4,1.59.7,2.29,2.39,2.29,3.48-1,2.99-.9,4.58-.4,3.88-.9,4.78c-.5.9-.2,6.77.2,7.67s-1.39,8.16-1.19,11.05.2,10.15.9,12.25c.7,2.09,2.19,13.24,2.19,13.24l-8.06,3.29-19.51.6-14.63-2.29-.45-1.59Z"/>
    <path d="M236.94,633.11l-1.49,1.59v6.37s6.52,2.69,21.55,2.39c15.03-.3,21.8-1,23.79-1.49l.5-6.87-1.69-1.99s-7.57,2.49-20.81,2.29c-13.24-.2-21.01-1.89-21.85-2.29Z"/>
    <path d="M244.2,620.39l1.25-3.2s13.34-3.74,27.04,0v3.2s-14.42-4.22-28.29,0Z"/>
    <path d="M245.63,613.36l.73-2.93s10.03-4.95,29.61.53l.11,3s-18.26-5.32-30.46-.6Z"/>
    <path d="M248.13,597.25c14.92,2.8,29.57.64,29.57.64l-.47,3.13c-14.29,2.5-29.2-.84-29.2-.84l.09-2.93Z"/>
    <path d="M248.38,584l-.06,3.99s15.26,3.77,29.18.91c0,0,.86-2.56.88-3.67,0,0-17.58,3.17-30-1.23Z"/>
  </g>
  <g>
    <path class="cls-1" d="M358.82,633.14s-1.14-3.87-1.54-5.66-.2-3.28-1.09-4.37-4.77-5.86-5.06-7.84c-.3-1.99-3.57-12.51-3.48-16.78s-.6-16.58,0-20.45-2.58-5.26-3.37-4.57c0,0,.4-1.79-1.79-2.48-2.18-.7-7.55-2.28-10.62-1.29s-5.76,1.29-6.26,3.08l-.5,1.69s.1-1.29-1.49-.7c-1.59.6-2.18,1.69-3.18,1.79s-1.09.4-1.59.7-2.28,2.38-2.28,3.48.99,2.98.89,4.57.4,3.87.89,4.77.2,6.75-.2,7.65,1.39,8.14,1.19,11.02-.2,10.13-.89,12.21c-.7,2.09-2.18,13.21-2.18,13.21l8.04,3.28,19.46.6,14.6-2.28.45-1.59Z"/>
    <path d="M358.82,633.14l1.49,1.59v6.35s-6.5,2.68-21.5,2.38-21.75-.99-23.73-1.49l-.5-6.85,1.69-1.99s7.55,2.48,20.75,2.28c13.21-.2,20.95-1.89,21.8-2.28Z"/>
    <path d="M351.57,620.45l-1.24-3.19s-13.31-3.73-26.97,0v3.19s14.38-4.21,28.21,0Z"/>
    <path d="M350.15,613.44l-.73-2.93s-10-4.94-29.53.53l-.11,2.99s18.21-5.3,30.38-.59Z"/>
    <path d="M347.66,597.37c-14.88,2.79-29.5.64-29.5.64l.46,3.12c14.26,2.49,29.13-.83,29.13-.83l-.09-2.93Z"/>
    <path d="M347.4,584.16l.06,3.98s-15.22,3.76-29.1.91c0,0-.86-2.56-.88-3.66,0,0,17.53,3.16,29.92-1.23Z"/>
  </g>
</svg>